<?xml version="1.0" standalone="no"?>
<!DOCTYPE svg PUBLIC "-//W3C//DTD SVG 20010904//EN"
 "http://www.w3.org/TR/2001/REC-SVG-20010904/DTD/svg10.dtd">
<svg version="1.0" xmlns="http://www.w3.org/2000/svg"
 width="2328.000000pt" height="2328.000000pt" viewBox="0 0 2328.000000 2328.000000"
 preserveAspectRatio="xMidYMid meet">
<metadata>
Created by potrace 1.14, written by Peter Selinger 2001-2017
</metadata>
<g transform="translate(0.000000,2328.000000) scale(0.100000,-0.100000)"
fill="#000000" stroke="none">
<path d="M11437 23274 c-1 -1 -55 -5 -121 -9 -65 -4 -126 -8 -135 -10 -9 -1
-45 -6 -81 -9 -36 -4 -75 -8 -85 -10 -11 -2 -45 -7 -75 -11 -30 -4 -64 -9 -75
-11 -11 -2 -31 -6 -45 -9 -14 -2 -59 -11 -100 -20 -41 -8 -88 -18 -105 -21
-50 -9 -272 -73 -374 -108 -584 -202 -959 -533 -1018 -898 -12 -69 -6 -189 12
-257 37 -145 116 -272 252 -409 70 -71 82 -88 79 -110 -3 -15 -8 -63 -11 -107
-4 -44 -9 -88 -11 -98 -2 -10 -6 -48 -9 -85 -3 -37 -8 -83 -10 -102 -2 -19 -6
-64 -10 -100 -3 -36 -8 -81 -10 -100 -2 -19 -7 -64 -10 -100 -4 -36 -8 -76
-10 -90 -2 -14 -7 -59 -10 -100 -3 -41 -8 -86 -10 -100 -2 -14 -7 -59 -10
-100 -4 -41 -8 -82 -10 -90 -2 -8 -6 -58 -10 -110 -4 -52 -8 -97 -10 -100 -2
-3 -6 -39 -10 -80 -3 -41 -7 -86 -10 -100 -2 -14 -7 -61 -11 -105 -3 -44 -8
-91 -9 -105 -1 -14 -6 -56 -9 -95 -4 -38 -9 -81 -11 -95 -3 -14 -7 -55 -10
-90 -3 -36 -7 -81 -10 -100 -2 -19 -7 -64 -10 -100 -3 -36 -8 -81 -10 -100 -6
-50 -14 -125 -20 -200 -3 -36 -8 -76 -10 -90 -2 -14 -6 -59 -10 -100 -4 -41
-8 -86 -10 -100 -2 -14 -7 -59 -10 -100 -4 -41 -9 -86 -10 -100 -2 -14 -6 -54
-10 -90 -3 -36 -8 -81 -10 -100 -5 -46 -13 -119 -20 -200 -4 -36 -8 -76 -10
-90 -2 -14 -6 -59 -10 -100 -4 -41 -9 -87 -10 -103 -2 -15 -7 -62 -10 -105 -4
-42 -9 -84 -10 -92 -5 -27 -21 -181 -24 -234 -1 -18 -19 -19 -109 -1 -16 3
-63 9 -154 20 -24 3 -68 8 -98 10 -67 6 -393 6 -435 0 -16 -2 -61 -6 -100 -10
-38 -3 -95 -9 -125 -15 -30 -5 -73 -12 -95 -16 -22 -3 -67 -12 -100 -20 -33
-8 -71 -17 -85 -20 -61 -11 -273 -80 -374 -121 -772 -309 -1348 -912 -1625
-1700 -12 -34 -24 -70 -26 -80 -3 -10 -14 -49 -25 -88 -29 -97 -71 -299 -85
-410 -4 -27 -8 -61 -10 -75 -25 -169 -25 -672 0 -800 2 -9 6 -41 10 -71 6 -51
8 -65 20 -141 5 -28 39 -208 50 -258 2 -8 13 -53 25 -100 12 -47 23 -93 25
-103 2 -9 7 -22 10 -27 3 -5 8 -18 10 -27 6 -31 52 -186 69 -233 10 -25 28
-74 40 -110 115 -320 298 -701 521 -1082 9 -17 101 -163 155 -249 40 -62 203
-303 215 -315 5 -6 17 -22 25 -34 18 -27 193 -263 209 -282 6 -7 57 -70 114
-141 l102 -127 0 -4508 c-1 -2479 2 -4550 6 -4602 4 -52 10 -108 14 -125 3
-16 8 -41 10 -55 14 -96 86 -303 143 -415 34 -68 142 -232 187 -285 101 -119
245 -246 370 -326 161 -102 402 -197 560 -219 22 -3 51 -8 65 -11 64 -14 353
-16 3005 -16 2530 -1 2915 1 2990 16 11 2 40 7 65 11 295 46 607 210 831 436
207 208 344 451 414 729 13 52 26 118 30 145 3 28 9 66 12 85 3 19 6 2083 7
4585 1 2876 5 4556 11 4565 5 8 54 71 110 141 120 150 148 187 197 253 21 28
41 56 45 61 80 98 364 525 452 677 10 18 42 74 71 123 222 381 410 805 537
1210 35 113 85 299 99 370 4 22 8 42 9 45 5 18 15 70 20 95 3 17 7 41 10 55 2
13 7 42 10 65 3 22 8 47 10 55 3 13 9 57 21 165 23 212 23 641 0 761 -2 12 -7
45 -11 75 -10 87 -14 111 -30 179 -1 3 -5 25 -9 50 -23 136 -122 447 -190 593
-20 42 -36 80 -36 83 0 11 -125 232 -173 304 -44 67 -125 180 -167 234 -64 81
-273 295 -375 383 -81 69 -230 176 -342 246 -51 31 -95 57 -97 57 -2 0 -35 17
-73 38 -37 21 -84 45 -103 52 -19 8 -37 17 -40 20 -9 11 -285 117 -325 125 -5
1 -41 11 -80 23 -167 50 -415 94 -604 107 -158 11 -397 6 -526 -10 -33 -4 -71
-8 -85 -10 -14 -1 -58 -8 -98 -15 -40 -6 -75 -10 -78 -7 -7 6 -11 38 -18 127
-4 41 -8 86 -10 100 -3 14 -7 57 -10 95 -4 39 -8 86 -11 105 -2 19 -6 67 -10
105 -4 39 -8 81 -10 95 -2 14 -6 57 -10 95 -3 39 -8 84 -10 100 -2 17 -7 62
-10 100 -6 72 -12 123 -20 185 -2 19 -7 67 -11 105 -4 39 -8 81 -9 95 -2 14
-6 61 -10 105 -4 44 -8 87 -10 95 -2 8 -6 56 -11 105 -4 50 -8 92 -9 95 -1 3
-5 43 -9 90 -5 47 -10 96 -12 110 -2 14 -6 54 -9 90 -3 36 -8 81 -10 100 -2
19 -7 62 -10 95 -3 33 -8 79 -11 102 -2 23 -7 68 -9 100 -3 32 -7 74 -10 93
-5 45 -13 120 -19 190 -3 30 -8 80 -12 110 -9 81 -11 97 -18 180 -4 41 -9 91
-11 110 -5 36 -11 95 -20 185 -5 51 -11 116 -20 195 -3 25 -8 77 -10 115 -3
39 -8 80 -10 93 -2 13 -6 53 -10 90 -5 61 -10 107 -20 187 -2 17 -7 59 -10 95
-3 36 -8 90 -11 120 l-5 55 61 54 c123 110 229 280 265 426 23 93 21 219 -4
318 -20 77 -85 216 -119 253 -9 10 -33 39 -52 64 -63 80 -258 250 -288 250 -6
0 -12 4 -14 8 -5 12 -110 74 -213 125 -151 76 -260 117 -522 198 -108 34 -412
95 -568 114 -27 4 -65 8 -83 11 -39 5 -100 11 -212 20 -75 6 -537 13 -543 8z
m-2002 -1051 c-24 -97 -24 -220 -1 -338 6 -27 5 -28 -4 -7 -30 69 -43 199 -27
267 15 62 28 105 33 105 4 0 3 -12 -1 -27z m4442 -55 c-3 -8 -6 -5 -6 6 -1 11
2 17 5 13 3 -3 4 -12 1 -19z m15 -58 c2 -22 0 -40 -4 -40 -5 0 -8 18 -8 40 0
22 2 40 4 40 2 0 6 -18 8 -40z m-5 -112 c-2 -13 -4 -3 -4 22 0 25 2 35 4 23 2
-13 2 -33 0 -45z m3 -32 c0 -3 -4 -8 -10 -11 -5 -3 -10 -1 -10 4 0 6 5 11 10
11 6 0 10 -2 10 -4z"/>
</g>
</svg>
